<svg width="16" height="16" viewBox="0 0 16 16" fill="none" xmlns="http://www.w3.org/2000/svg">
<path fill-rule="evenodd" clip-rule="evenodd" d="M10.0674 0.870798C8.93365 -0.290266 7.06635 -0.290266 5.93262 0.870798L5.31077 1.50763L4.42075 1.49703C2.79809 1.47771 1.47771 2.79809 1.49703 4.42075L1.50763 5.31077L0.870798 5.93262C-0.290266 7.06635 -0.290266 8.93365 0.870798 10.0674L1.50763 10.6892L1.49703 11.5792C1.47771 13.2019 2.79809 14.5223 4.42075 14.503L5.31077 14.4924L5.93262 15.1292C7.06635 16.2903 8.93365 16.2903 10.0674 15.1292L10.6892 14.4924L11.5792 14.503C13.2019 14.5223 14.5223 13.2019 14.503 11.5792L14.4924 10.6892L15.1292 10.0674C16.2903 8.93365 16.2903 7.06635 15.1292 5.93262L14.4924 5.31077L14.503 4.42075C14.5223 2.79809 13.2019 1.47771 11.5792 1.49703L10.6892 1.50763L10.0674 0.870798ZM8.00005 4C7.46464 4 7.04627 4.46229 7.09955 4.99504L7.45029 8.50248C7.47854 8.78492 7.7162 9 8.00005 9C8.28389 9 8.52155 8.78492 8.5498 8.50248L8.90054 4.99504C8.95382 4.46228 8.53546 4 8.00005 4ZM8.00159 10C7.4493 10 7.00159 10.4477 7.00159 11C7.00159 11.5523 7.4493 12 8.00159 12C8.55387 12 9.00159 11.5523 9.00159 11C9.00159 10.4477 8.55387 10 8.00159 10Z" fill="#B9332A"/>
</svg>
