<svg width="24" height="24" viewBox="0 0 24 24" fill="none" xmlns="http://www.w3.org/2000/svg">
<g clip-path="url(#clip0_687_85845)">
<path opacity="0.2" fill-rule="evenodd" clip-rule="evenodd" d="M12 19C15.866 19 19 15.866 19 12C19 8.13401 15.866 5 12 5C8.13401 5 5 8.13401 5 12C5 15.866 8.13401 19 12 19ZM12 22C17.5228 22 22 17.5228 22 12C22 6.47715 17.5228 2 12 2C6.47715 2 2 6.47715 2 12C2 17.5228 6.47715 22 12 22Z" fill="#ED9526"/>
<path d="M19.0716 4.92864C15.1663 1.0234 8.83466 1.0234 4.92942 4.92864L7.05074 7.04996C9.78441 4.31629 14.2166 4.31629 16.9502 7.04996L19.0716 4.92864Z" fill="#ED9526"/>
<path d="M19.0716 19.0708C15.1663 22.976 8.83466 22.976 4.92942 19.0708L7.05074 16.9495C9.78441 19.6831 14.2166 19.6831 16.9502 16.9495L19.0716 19.0708Z" fill="#ED9526"/>
</g>
<defs>
<clipPath id="clip0_687_85845">
<rect width="24" height="24" fill="white" transform="matrix(-1 0 0 1 24 0)"/>
</clipPath>
</defs>
</svg>
