<svg width="102" height="78" viewBox="0 0 102 78" fill="none" xmlns="http://www.w3.org/2000/svg">
<path d="M0.28125 15.75H34.0312V0.9375H4.59375C2.15625 1.125 0.28125 3 0.28125 5.25V15.75Z" fill="#E6E6E6"/>
<path d="M67.7812 1.125H34.0312V15.9375H67.7812V1.125Z" fill="#B3B3B3"/>
<path d="M101.531 15.75H67.7812V0.9375H97.4062C99.6562 0.9375 101.719 2.8125 101.719 5.25V15.75H101.531Z" fill="#666666"/>
<path d="M97.4062 77.0625H4.59375C2.15625 77.0625 0.28125 75 0.28125 72.75V13.6875H101.531V72.75C101.531 75 99.6562 77.0625 97.4062 77.0625Z" fill="#333333"/>
<path d="M32.3438 39.5625L13.7813 58.125C12.6562 59.25 12.6562 60.5625 13.7813 61.5L17.5313 65.25C18.6563 66.375 20.1563 66.375 20.9063 65.25L39.4688 46.6875C40.5938 45.5625 40.5938 44.0625 39.4688 43.3125L35.7188 39.5625C34.9688 38.8125 33.2813 38.8125 32.3438 39.5625Z" fill="#999999"/>
<path d="M20.9063 24.9375L39.4688 43.5C40.5938 44.625 40.5938 45.9375 39.4688 46.875L35.7188 50.625C34.5938 51.75 33.0938 51.75 32.3438 50.625L13.7813 32.0625C12.6562 30.9375 12.6562 29.4375 13.7813 28.6875L17.5313 24.9375C18.4688 24 20.1563 24 20.9063 24.9375Z" fill="#CCCCCC"/>
<path d="M20.9063 24.9375L39.4688 43.5C40.5938 44.625 40.5938 45.9375 39.4688 46.875L35.7188 50.625C34.5938 51.75 33.0938 51.75 32.3438 50.625L13.7813 32.0625C12.6562 30.9375 12.6562 29.4375 13.7813 28.6875L17.5313 24.9375C18.4688 24 20.1563 24 20.9063 24.9375Z" fill="#CCCCCC"/>
<path d="M53.5313 66H46.4063C45.0938 66 44.1562 65.0625 44.1562 63.75V59.25C44.1562 57.9375 45.0938 57 46.4063 57H53.5313C54.8438 57 55.7812 57.9375 55.7812 59.25V63.75C55.7812 65.0625 54.6563 66 53.5313 66Z" fill="#E6E6E6"/>
<path d="M72.4687 66H65.3438C64.0313 66 63.0938 65.0625 63.0938 63.75V59.25C63.0938 57.9375 64.0313 57 65.3438 57H72.4687C73.7812 57 74.7188 57.9375 74.7188 59.25V63.75C74.7188 65.0625 73.5937 66 72.4687 66Z" fill="#B3B3B3"/>
<path d="M91.4062 66H84.2813C82.9688 66 82.0312 65.0625 82.0312 63.75V59.25C82.0312 57.9375 82.9688 57 84.2813 57H91.4062C92.7187 57 93.6563 57.9375 93.6563 59.25V63.75C93.6563 65.0625 92.7187 66 91.4062 66Z" fill="#666666"/>
</svg>
