<svg xmlns="http://www.w3.org/2000/svg" xmlns:xlink="http://www.w3.org/1999/xlink" viewBox="229.9 221.4 40.2 57.2" xmlns:v="https://vecta.io/nano"><defs><linearGradient id="A" x1="-273.62" y1="432.68" x2="-273.56" y2="432.63" gradientTransform="matrix(89.940002, 0, 0, -103.769997, 24855.300788, 45169.101569)" gradientUnits="userSpaceOnUse"><stop offset="0" stop-color="#68e1f6"/><stop offset="1" stop-color="#cdfaff"/></linearGradient><linearGradient id="B" x1="-273.49" y1="430.24" y2="430.35" gradientTransform="matrix(90.93, 0, 0, -105.309998, 25124.519537, 45544.910163)" xlink:href="#A"/><linearGradient id="C" x1="-272.59" y1="429.48" x2="-272.69" y2="429.5" gradientTransform="matrix(361.559998, 0, 0, -257.850006, 98827.148444, 110981.718757)" gradientUnits="userSpaceOnUse"><stop offset="0" stop-color="#9517fd"/><stop offset="1" stop-color="#0b58f9"/></linearGradient><linearGradient id="D" x1="-272.93" y1="429.92" x2="-272.77" y2="429.86" gradientTransform="matrix(269.929993, 0, 0, -259.450012, 73902.632819, 111798.742194)" xlink:href="#C"/></defs><path d="M243.4 278.6l13.19-7.61-13.19-7.61v15.22z" fill="url(#A)"/><path d="M256.25 221.4l.33 15.45-13.34-7.47 13-7.98h.01z" fill="url(#B)"/><path d="M256.25 221.4l13.32 7.38.53 30.44-13.32-7.38-13.32-7.38-13.32-7.38-.04.03-.2-15.23 13.3 7.37 13.32 7.38-.26-15.22-.01-.01z" fill="url(#C)"/><path d="M230.21 240.55l13.19 7.61 13.19 7.61 13.19 7.61h.01v15.21h-.01l-13.19-7.6-13.19-7.61v15.22l-13.19-7.61v-30.45.01z" fill="url(#D)"/></svg>